<svg xmlns="http://www.w3.org/2000/svg" viewBox="0 0 30.9 39.45"><g id="Layer_2" data-name="Layer 2"><g id="Layer_1-2" data-name="Layer 1"><path d="M25.48,22.3l4.8-4.7a3.83,3.83,0,0,0,.5-3,2.93,2.93,0,0,0-2.4-2l-6.6-1a.75.75,0,0,1-.7-.5l-3-6a2.91,2.91,0,0,0-5.2,0l-3,6a.75.75,0,0,1-.7.5l-6.6,1a3.07,3.07,0,0,0-2.4,2,2.79,2.79,0,0,0,.7,3l4.8,4.7a1.14,1.14,0,0,1,.3.8l-1.1,6.6a3,3,0,0,0,1.2,2.9,2.9,2.9,0,0,0,3.1.2c1.5-.8,3.1-1.6,4.6-2.4a3.29,3.29,0,0,1,1.6-.7,1.69,1.69,0,0,1,1,.3A15,15,0,0,1,23,36.6l.6,1.5c.2.5.4,1.2.9,1.3s.9-.3,1.1-.8a2.7,2.7,0,0,0-.3-1.5l-.6-1.5a17.48,17.48,0,0,0-1.8-2.9,15.68,15.68,0,0,0-3.2-3.1,7.61,7.61,0,0,0-1.9-1.2,4.39,4.39,0,0,0-2.2-.7h-.1a6,6,0,0,0-2.3.6,39,39,0,0,0-3.5,1.9,11.94,11.94,0,0,1-1.6.8.92.92,0,0,1-1-.1,1.09,1.09,0,0,1-.4-.9l1.1-6.6A3.05,3.05,0,0,0,7,20.8l-4.8-4.7a.92.92,0,0,1-.2-1,1,1,0,0,1,.9-.6l6.6-1a2.65,2.65,0,0,0,2.2-1.6l3-6a1,1,0,0,1,1.7,0l3,6a2.8,2.8,0,0,0,2.2,1.6l6.6,1a1.24,1.24,0,0,1,.8.6c.2.3,0,.7-.2,1L24,20.8a2.78,2.78,0,0,0-.8,2.6v.4c0,.1.1.3.1.4a4.33,4.33,0,0,0,.1.5c0,.2.1.4.1.6s.1.4.1.6.1.4.1.6.1.4.1.6.1.3.1.5.1.3.1.5.1.3.1.5.1.1.1.2l.3.3a1.07,1.07,0,0,0,1.2-.2c.1-.1.2-.2.2-.3a2.72,2.72,0,0,0,0-.9c0-.1-.1-.3-.1-.4s-.1-.4-.1-.6-.1-.4-.1-.6-.1-.4-.1-.7-.1-.4-.1-.7-.1-.4-.1-.6-.1-.3-.1-.5a.6.6,0,0,0-.1-.4V23h0A.87.87,0,0,1,25.48,22.3Z" style="fill:#0071e3"></path><path d="M4.68,8a4,4,0,1,1,4-4A4,4,0,0,1,4.68,8Zm0-6a2,2,0,1,0,2,2A2,2,0,0,0,4.68,2Z" style="fill:#0071e3"></path></g></g></svg>