<svg xmlns="http://www.w3.org/2000/svg" viewBox="0 0 35.97 42.13"><g id="Layer_2" data-name="Layer 2"><g id="Layer_1-2" data-name="Layer 1"><path d="M35.77,14.23a2.76,2.76,0,0,0-2.6-1.7H24a.71.71,0,0,1-.6-.3.82.82,0,0,1-.1-.7l2.3-8a2.66,2.66,0,0,0-1.4-3.2,2.65,2.65,0,0,0-3.4.7L7.47,16.93a2.8,2.8,0,0,0-.4,2.9,2.74,2.74,0,0,0,2.5,1.6h4.1c.4,0,.6.2.6.3a.76.76,0,0,1,.1.7l-4.2,9.5a.6.6,0,0,0-.1.4,1,1,0,0,0,1,1,1,1,0,0,0,.9-.6l4.1-9.5a2.68,2.68,0,0,0-2.5-3.8H9.47a.93.93,0,0,1-.7-.4.63.63,0,0,1,.1-.8l13.5-15.9a.86.86,0,0,1,.9-.2.85.85,0,0,1,.4.9l-2.3,8a2.92,2.92,0,0,0,.4,2.4,2.66,2.66,0,0,0,2.2,1.1h9.2a.68.68,0,0,1,.7.5.69.69,0,0,1-.2.8c-.8.8-1.6,1.5-2.3,2.3-1.7,1.6-3.3,3.3-5,4.9l-8.1,7.8c-1.7,1.6-3.3,3.3-4.9,4.9l-4.7,4.7h0a1,1,0,0,0,0,1.4,1,1,0,0,0,1.4,0c1.8-1.7,3.5-3.5,5.3-5.2,2.7-2.7,5.5-5.4,8.2-8,1-1,2-2,3.1-3,1.7-1.6,3.4-3.3,5-4.9,1-1,2.1-2,3.1-3.1.1-.1.3-.4.4-.4A2.76,2.76,0,0,0,35.77,14.23Z" style="fill:#0071e3"></path><path d="M1,18.43a1.42,1.42,0,0,1-.6-.2,1.08,1.08,0,0,1-.2-1.4l8.3-10.6A1.08,1.08,0,0,1,9.87,6a1.08,1.08,0,0,1,.2,1.4L1.77,18A.91.91,0,0,1,1,18.43Z" style="fill:#0071e3"></path></g></g></svg>