<svg xmlns="http://www.w3.org/2000/svg" viewBox="0 0 37 36.6"><g id="Layer_2" data-name="Layer 2"><g id="Layer_1-2" data-name="Layer 1"><path d="M27.4,17.4a1.9,1.9,0,1,0-1.9,1.9A2,2,0,0,0,27.4,17.4Z" style="fill:#0071e3"></path><path d="M19.4,17.4a1.9,1.9,0,1,0-1.9,1.9A2,2,0,0,0,19.4,17.4Z" style="fill:#0071e3"></path><path d="M31,6.3H6a6,6,0,0,0-6,6V23.2a6,6,0,0,0,6,6h.6v6.4a.87.87,0,0,0,.6.9.6.6,0,0,0,.4.1.91.91,0,0,0,.7-.3l6.9-6.9a.91.91,0,0,0,.3-.7.94.94,0,0,0-1-1,1.23,1.23,0,0,0-.8.4h0L8.6,33.2v-5a.94.94,0,0,0-1-1H6a4,4,0,0,1-4-4V12.3a4,4,0,0,1,4-4H31a4,4,0,0,1,4,4V23.2a4,4,0,0,1-4,4H19.8a1,1,0,0,0,0,2H31a6,6,0,0,0,6-6V12.3A6,6,0,0,0,31,6.3Z" style="fill:#0071e3"></path><path d="M5.6,2H21a.94.94,0,0,0,1-1,.94.94,0,0,0-1-1H5.6a.94.94,0,0,0-1,1A1,1,0,0,0,5.6,2Z" style="fill:#0071e3"></path></g></g></svg>