<svg xmlns="http://www.w3.org/2000/svg" viewBox="0 0 36.9 28.4"><g id="Layer_2" data-name="Layer 2"><g id="Layer_1-2" data-name="Layer 1"><path d="M4.1,7.2l13.4,9.1,9.9-5.5a.9.9,0,0,0,.4-1.3.9.9,0,0,0-1.3-.4L17.6,14,5.1,5.6a.87.87,0,0,1-.4-1.3C5,3.6,6,3.5,7,3.5H27a1,1,0,0,0,1-1,.94.94,0,0,0-1-1H6.3c-1.1.1-2.8.3-3.4,2A2.9,2.9,0,0,0,4.1,7.2Z" style="fill:#0071e3"></path><path d="M33.9,9.2a.9.9,0,0,0-.9.9h0V21.7a4.74,4.74,0,0,1-4.8,4.8H6.7a4.74,4.74,0,0,1-4.8-4.8V8.6h0A.9.9,0,0,0,1,7.7a1,1,0,0,0-1,.9H0V21.8a6.53,6.53,0,0,0,6.6,6.6H28.2a6.62,6.62,0,0,0,6.7-6.6V10.1h0A.92.92,0,0,0,33.9,9.2Z" style="fill:#0071e3"></path><path d="M33.1,0a3.8,3.8,0,1,0,3.8,3.8A3.8,3.8,0,0,0,33.1,0Zm0,5.7a2,2,0,0,1-1.9-1.9,2,2,0,0,1,1.9-1.9A1.84,1.84,0,0,1,35,3.8,2,2,0,0,1,33.1,5.7Z" style="fill:#0071e3"></path></g></g></svg>