<svg xmlns="http://www.w3.org/2000/svg" viewBox="0 0 36.8 36.74"><g id="Layer_2" data-name="Layer 2"><g id="Layer_1-2" data-name="Layer 1"><path d="M36.8,18.4A18.4,18.4,0,0,0,0,18.4a18.87,18.87,0,0,0,1.7,7.8,17.91,17.91,0,0,0,4.7,6.2,17.76,17.76,0,0,0,6.9,3.7,20,20,0,0,0,2.6.5,5.7,5.7,0,0,0,1.3.1c.7,0,2.1.3,2.1-.8a.79.79,0,0,0-.8-.8A16.7,16.7,0,1,1,35.2,18.4a17.19,17.19,0,0,1-3.1,9.7,9.51,9.51,0,0,1-3.5,3.4,6.17,6.17,0,0,1-7.3-1.4,6.38,6.38,0,0,1-1.5-2.8,13.83,13.83,0,0,1-.1-2.9,3.61,3.61,0,0,0,2.8-3.5c0-1.9-1.3-2.6-2.5-3.2l-1.9-.8c-.7-.3-1.1-.6-1.1-1.4,0-1.2,1.1-1.5,1.9-1.5a12.47,12.47,0,0,1,2.3.3.77.77,0,0,0,.3.1.79.79,0,0,0,.8-.8.85.85,0,0,0-.7-.8,8.35,8.35,0,0,0-2-.5v-3a.82.82,0,0,0-.8-.9.9.9,0,0,0-.9.9v3.1A3.5,3.5,0,0,0,15,15.6a3.13,3.13,0,0,0,2,3l2,.9a2,2,0,0,1,1.5,1.8c0,1.1-.7,1.7-1.9,1.7a5.45,5.45,0,0,1-2.2-.5,4.33,4.33,0,0,0-.5-.1.74.74,0,0,0-.8.8.79.79,0,0,0,.5.8,10.55,10.55,0,0,0,2.4.6,10.35,10.35,0,0,0,.8,4.9,8.93,8.93,0,0,0,2.9,3.2,7.46,7.46,0,0,0,1.2.7A8.05,8.05,0,0,0,32,31.2a19.6,19.6,0,0,0,4.4-8A40.51,40.51,0,0,0,36.8,18.4Z" style="fill:#0071e3"></path></g></g></svg>