<?xml version="1.0" encoding="UTF-8"?>
<svg id="Layer_2" data-name="Layer 2" xmlns="http://www.w3.org/2000/svg" viewBox="0 0 283.54 84.57">
  <defs>
    <style>
      .cls-1 {
        fill: #282828;
      }
    </style>
  </defs>
  <g id="svg5">
    <g>
      <g>
        <path class="cls-1" d="m30.17,67.53c-.26,1.63-.79,3.03-1.6,4.21-.8,1.18-1.83,2.08-3.08,2.71-1.25.63-2.67.95-4.28.95-2.01,0-3.76-.53-5.25-1.6-1.49-1.07-2.63-2.6-3.44-4.62-.8-2.01-1.21-4.41-1.21-7.21v-.03c0-2.78.4-5.15,1.21-7.13.8-1.98,1.95-3.5,3.42-4.57,1.48-1.07,3.22-1.6,5.23-1.6,1.71,0,3.19.33,4.43,1,1.25.66,2.25,1.57,3,2.73.75,1.16,1.25,2.5,1.49,4.03l.06.42h10.68l-.03-.27c-.12-3.26-1.02-6.17-2.7-8.75-1.68-2.57-3.97-4.61-6.88-6.09-2.91-1.49-6.26-2.23-10.06-2.23-4.32,0-8.07.89-11.24,2.67-3.17,1.78-5.62,4.35-7.35,7.71-1.73,3.36-2.59,7.4-2.59,12.13v.03c0,4.73.86,8.77,2.58,12.14,1.72,3.37,4.16,5.95,7.33,7.74,3.17,1.79,6.92,2.69,11.27,2.69,3.78,0,7.12-.75,10.03-2.23,2.91-1.49,5.21-3.51,6.91-6.08,1.7-2.56,2.62-5.46,2.76-8.7v-.33h-10.65l-.06.3Z"/>
        <path class="cls-1" d="m68.81,52.28c-2.51-1.36-5.48-2.04-8.9-2.04s-6.36.68-8.87,2.04c-2.51,1.36-4.46,3.32-5.85,5.88-1.39,2.56-2.08,5.62-2.08,9.16v.06c0,3.6.68,6.68,2.04,9.23,1.36,2.55,3.29,4.5,5.81,5.85,2.51,1.35,5.5,2.02,8.96,2.02s6.47-.67,8.97-2.01c2.5-1.34,4.44-3.28,5.81-5.84,1.37-2.55,2.05-5.64,2.05-9.26v-.06c0-3.58-.69-6.64-2.08-9.19-1.39-2.54-3.34-4.49-5.85-5.85Zm-2.96,15.1c0,1.91-.24,3.54-.71,4.89-.47,1.35-1.15,2.37-2.04,3.06-.89.69-1.94,1.04-3.17,1.04s-2.29-.35-3.18-1.04c-.89-.69-1.58-1.71-2.07-3.06-.48-1.35-.72-2.98-.72-4.89v-.06c0-1.89.25-3.5.74-4.84.49-1.34,1.19-2.36,2.08-3.06.89-.7,1.93-1.06,3.12-1.06s2.25.35,3.14,1.06c.88.7,1.57,1.72,2.07,3.06.49,1.34.74,2.95.74,4.84v.06Z"/>
        <path class="cls-1" d="m100.55,50.24c-2.47,0-4.55.56-6.21,1.69-1.67,1.13-2.93,2.73-3.77,4.8h-.21v-5.79h-10.71v32.85h10.71v-18.64c0-1.23.23-2.3.68-3.23.45-.92,1.09-1.65,1.92-2.17.82-.52,1.8-.78,2.93-.78,1.75,0,3.07.53,3.95,1.58.88,1.06,1.33,2.52,1.33,4.39v18.85h10.71v-21.15c0-3.9-.98-6.94-2.94-9.12-1.96-2.18-4.75-3.27-8.37-3.27Z"/>
        <polygon class="cls-1" points="135.78 50.93 130.17 74.83 129.96 74.83 124.23 50.93 112.74 50.93 123.72 83.78 136.12 83.78 146.97 50.93 135.78 50.93"/>
        <path class="cls-1" d="m171.11,52.28c-2.43-1.36-5.31-2.04-8.63-2.04s-6.2.69-8.64,2.08c-2.44,1.39-4.33,3.36-5.67,5.91-1.34,2.55-2.01,5.59-2.01,9.11v.03c0,3.54.67,6.59,2.01,9.14,1.34,2.55,3.25,4.52,5.75,5.9,2.49,1.38,5.47,2.07,8.93,2.07,2.63,0,4.88-.34,6.74-1.01,1.86-.67,3.4-1.55,4.62-2.64,1.22-1.09,2.17-2.25,2.85-3.48.68-1.24,1.15-2.43,1.39-3.57l.09-.36h-9.65l-.03.12c-.16.46-.48.96-.95,1.48-.47.52-1.11.97-1.92,1.33-.8.36-1.78.54-2.93.54-1.33,0-2.47-.3-3.42-.89-.96-.59-1.69-1.44-2.2-2.55-.47-1.02-.72-2.23-.76-3.62h22.07v-3.14c0-3.32-.66-6.21-1.99-8.67-1.33-2.46-3.21-4.37-5.64-5.73Zm-11.57,6.44c.92-.58,1.98-.88,3.18-.88s2.26.29,3.17.86c.9.57,1.61,1.42,2.11,2.53.3.66.5,1.42.62,2.25h-11.82c.12-.81.32-1.56.62-2.22.5-1.12,1.21-1.97,2.13-2.55Z"/>
        <path class="cls-1" d="m199.92,50.24c-1.95,0-3.55.56-4.81,1.69-1.26,1.13-2.12,2.74-2.58,4.83h-.21v-5.82h-10.71v32.85h10.71v-17.44c0-1.55.27-2.85.8-3.91.53-1.06,1.32-1.86,2.35-2.4,1.04-.54,2.31-.81,3.82-.81.64,0,1.26.05,1.86.15.59.1,1.11.25,1.55.45v-9.17c-.4-.14-.84-.25-1.31-.32-.47-.07-.96-.11-1.46-.11Z"/>
        <path class="cls-1" d="m219.17,43.36h-10.74v7.57h-4.46v7.84h4.46v15.41c0,3.7.94,6.34,2.82,7.92,1.88,1.58,4.8,2.37,8.76,2.37,1.13,0,2.1-.04,2.93-.12.83-.08,1.53-.17,2.11-.27v-7.6c-.3.04-.6.08-.91.11-.3.03-.67.05-1.12.05-1.29,0-2.25-.3-2.9-.89-.64-.59-.97-1.59-.97-3v-13.97h5.88v-7.84h-5.88v-7.57Z"/>
        <path class="cls-1" d="m251.96,52.28c-2.43-1.36-5.31-2.04-8.63-2.04s-6.2.69-8.64,2.08c-2.44,1.39-4.33,3.36-5.67,5.91s-2.01,5.59-2.01,9.11v.03c0,3.54.67,6.59,2.01,9.14s3.25,4.52,5.75,5.9c2.49,1.38,5.47,2.07,8.93,2.07,2.63,0,4.88-.34,6.74-1.01,1.86-.67,3.4-1.55,4.62-2.64,1.22-1.09,2.17-2.25,2.85-3.48.68-1.24,1.15-2.43,1.39-3.57l.09-.36h-9.65l-.03.12c-.16.46-.48.96-.95,1.48-.47.52-1.11.97-1.92,1.33-.8.36-1.78.54-2.93.54-1.33,0-2.47-.3-3.42-.89-.96-.59-1.69-1.44-2.2-2.55-.47-1.02-.72-2.23-.76-3.62h22.07v-3.14c0-3.32-.66-6.21-1.99-8.67-1.33-2.46-3.21-4.37-5.64-5.73Zm-11.57,6.44c.92-.58,1.98-.88,3.18-.88s2.26.29,3.17.86c.9.57,1.61,1.42,2.11,2.53.3.66.5,1.42.62,2.25h-11.82c.12-.81.32-1.56.62-2.22.5-1.12,1.21-1.97,2.13-2.55Z"/>
        <path class="cls-1" d="m282.23,50.35c-.47-.07-.96-.11-1.46-.11-1.95,0-3.55.56-4.81,1.69-1.26,1.13-2.12,2.74-2.58,4.83h-.21v-5.82h-10.71v32.85h10.71v-17.44c0-1.55.27-2.85.8-3.91.53-1.06,1.32-1.86,2.35-2.4,1.04-.54,2.31-.81,3.82-.81.64,0,1.26.05,1.86.15.59.1,1.11.25,1.55.45v-9.17c-.4-.14-.84-.25-1.31-.32Z"/>
      </g>
      <g>
        <path class="cls-1" d="m23.42,19.51c0,1.72-.35,3.22-1.05,4.5s-1.71,2.28-3.03,3c-1.32.72-2.91,1.08-4.77,1.08s-3.43-.36-4.75-1.08c-1.32-.72-2.33-1.72-3.04-3s-1.06-2.78-1.06-4.5V0h-2.85v19.68c0,2.21.47,4.14,1.4,5.8.94,1.66,2.28,2.95,4.04,3.87s3.84,1.38,6.26,1.38,4.52-.46,6.27-1.38c1.75-.92,3.09-2.21,4.02-3.87.94-1.66,1.4-3.59,1.4-5.8V0h-2.85v19.51Z"/>
        <path class="cls-1" d="m40.53,8.07c-1.75,0-3.22.39-4.42,1.16s-2.08,1.76-2.64,2.95h-.06v-3.73h-2.77v21.8h2.77v-12.91c0-1.37.26-2.56.79-3.57.52-1.01,1.26-1.81,2.21-2.38.95-.57,2.06-.86,3.33-.86,1.86,0,3.28.53,4.26,1.59s1.47,2.61,1.47,4.63v13.5h2.77v-13.96c0-2.57-.68-4.58-2.03-6.04s-3.24-2.18-5.66-2.18Z"/>
        <path class="cls-1" d="m53.61.84c-.5,0-.93.18-1.29.53s-.53.79-.53,1.29.18.95.53,1.31c.36.36.79.53,1.29.53s.95-.18,1.31-.53.53-.79.53-1.31-.18-.93-.53-1.29c-.36-.36-.79-.53-1.31-.53Z"/>
        <rect class="cls-1" x="52.22" y="8.45" width="2.77" height="21.8"/>
        <path class="cls-1" d="m74.11,23.6c-.34,1.36-1.04,2.46-2.11,3.3-1.07.85-2.42,1.27-4.06,1.27-1.41,0-2.65-.35-3.72-1.06-1.07-.71-1.9-1.72-2.48-3.03s-.88-2.89-.88-4.72v-.02c0-1.8.29-3.36.88-4.68s1.41-2.34,2.46-3.06c1.06-.72,2.29-1.08,3.7-1.08,1.72,0,3.11.44,4.16,1.33s1.74,1.97,2.04,3.24l.04.19h2.7l-.02-.19c-.2-1.26-.67-2.42-1.44-3.48s-1.77-1.92-3.04-2.58c-1.26-.66-2.75-.99-4.45-.99-1.97,0-3.7.46-5.19,1.38-1.49.92-2.64,2.23-3.46,3.91-.82,1.68-1.23,3.67-1.23,5.96v.02c0,2.31.41,4.3,1.22,5.99.81,1.69,1.96,3,3.45,3.93,1.49.93,3.24,1.39,5.25,1.39,1.59,0,3.02-.31,4.28-.92,1.26-.62,2.29-1.45,3.09-2.52s1.31-2.27,1.52-3.63l.04-.17h-2.72l-.04.19Z"/>
        <path class="cls-1" d="m93.51,9.42c-1.49-.92-3.22-1.37-5.21-1.37s-3.68.46-5.18,1.37c-1.5.92-2.66,2.21-3.49,3.9-.83,1.68-1.25,3.68-1.25,5.98v.04c0,2.31.42,4.3,1.25,5.99.83,1.69,1.99,2.99,3.49,3.91,1.5.92,3.23,1.38,5.2,1.39,1.98,0,3.72-.46,5.2-1.38,1.48-.92,2.64-2.23,3.48-3.91.84-1.68,1.26-3.69,1.26-6.01v-.04c0-2.32-.42-4.32-1.26-5.99-.84-1.68-2-2.97-3.49-3.89Zm1.92,9.93c0,1.83-.29,3.41-.88,4.74-.59,1.33-1.41,2.34-2.47,3.04s-2.31,1.05-3.73,1.05-2.69-.35-3.75-1.05-1.89-1.71-2.48-3.04c-.59-1.33-.89-2.91-.89-4.74v-.04c0-1.83.3-3.4.89-4.72s1.42-2.32,2.48-3.02,2.3-1.05,3.71-1.05,2.69.35,3.76,1.04,1.9,1.69,2.48,3.01.88,2.89.88,4.74v.04Z"/>
        <path class="cls-1" d="m116.75,13.02h-.08c-.41-1.01-.97-1.88-1.71-2.63-.73-.75-1.59-1.32-2.57-1.73-.98-.41-2.04-.61-3.19-.61-1.82,0-3.41.47-4.79,1.4-1.38.94-2.46,2.25-3.24,3.93-.78,1.68-1.17,3.67-1.17,5.94v.02c0,2.26.39,4.24,1.16,5.94.78,1.7,1.86,3.02,3.24,3.95,1.38.94,2.99,1.4,4.82,1.4,1.16,0,2.22-.21,3.19-.62s1.81-.99,2.54-1.72,1.29-1.6,1.7-2.61h.1v4.55h2.75V0h-2.75v13.02Zm0,6.33c0,1.75-.3,3.29-.89,4.62-.59,1.33-1.42,2.37-2.47,3.1-1.06.73-2.27,1.1-3.64,1.1s-2.62-.36-3.66-1.08c-1.04-.72-1.84-1.74-2.41-3.07-.57-1.33-.85-2.89-.85-4.67v-.02c0-1.79.28-3.34.85-4.66.57-1.32,1.37-2.34,2.41-3.06,1.04-.72,2.26-1.08,3.66-1.08s2.58.37,3.63,1.1c1.05.73,1.87,1.76,2.47,3.09.6,1.33.9,2.86.9,4.61v.02Z"/>
        <path class="cls-1" d="m137.26,9.4c-1.42-.9-3.1-1.35-5.04-1.35s-3.64.47-5.09,1.4c-1.45.94-2.58,2.26-3.38,3.96-.8,1.71-1.21,3.7-1.21,5.97v.02c0,2.29.4,4.28,1.21,5.96.8,1.68,1.95,2.98,3.43,3.9,1.48.92,3.24,1.37,5.28,1.37,1.17,0,2.26-.16,3.27-.47,1.01-.31,1.9-.76,2.68-1.34.78-.58,1.43-1.26,1.94-2.05.51-.79.86-1.65,1.06-2.57l.04-.21h-2.72l-.06.19c-.24.8-.64,1.5-1.19,2.1-.56.6-1.26,1.07-2.1,1.39-.84.33-1.79.49-2.85.49-1.45,0-2.72-.33-3.79-.99-1.08-.66-1.91-1.61-2.5-2.85-.57-1.19-.86-2.64-.88-4.32h16.38v-1.09c0-2.18-.39-4.09-1.16-5.72-.78-1.63-1.87-2.9-3.29-3.8Zm-11.05,4.9c.59-1.24,1.41-2.18,2.44-2.82,1.04-.64,2.22-.96,3.54-.96s2.5.31,3.51.94c1.01.63,1.81,1.55,2.39,2.78.47,1,.74,2.2.83,3.57h-13.56c.09-1.33.37-2.51.85-3.51Z"/>
        <path class="cls-1" d="m156.49,2.56h-2.85v5.89h-3.21v2.33h3.21v14.36c0,1.9.44,3.29,1.33,4.18.89.89,2.23,1.33,4.01,1.33.34,0,.67-.02,1-.05.33-.03.6-.07.81-.12v-2.24c-.15.01-.34.03-.55.05-.22.02-.44.03-.68.03-1.02,0-1.78-.24-2.29-.71-.51-.47-.77-1.31-.77-2.52v-14.32h4.3v-2.33h-4.3V2.56Z"/>
        <path class="cls-1" d="m177.08,9.42c-1.49-.92-3.22-1.37-5.21-1.37s-3.68.46-5.18,1.37c-1.5.92-2.66,2.21-3.49,3.9-.83,1.68-1.25,3.68-1.25,5.98v.04c0,2.31.42,4.3,1.25,5.99.83,1.69,1.99,2.99,3.49,3.91,1.49.92,3.23,1.38,5.2,1.39,1.98,0,3.72-.46,5.2-1.38,1.48-.92,2.64-2.23,3.48-3.91s1.26-3.69,1.26-6.01v-.04c0-2.32-.42-4.32-1.26-5.99-.84-1.68-2-2.97-3.49-3.89Zm1.92,9.93c0,1.83-.29,3.41-.88,4.74-.59,1.33-1.41,2.34-2.47,3.04-1.06.7-2.31,1.05-3.73,1.05s-2.69-.35-3.75-1.05c-1.06-.7-1.89-1.71-2.48-3.04-.59-1.33-.89-2.91-.89-4.74v-.04c0-1.83.3-3.4.89-4.72.59-1.31,1.42-2.32,2.48-3.02,1.06-.7,2.3-1.05,3.71-1.05s2.69.35,3.76,1.04,1.9,1.69,2.48,3.01.88,2.89.88,4.74v.04Z"/>
        <path class="cls-1" d="m208.37,1.16c-1.45-.78-3.14-1.16-5.07-1.16h-10.27v30.25h2.85v-11.4h7.42c1.93,0,3.62-.4,5.07-1.18,1.45-.79,2.59-1.89,3.42-3.31.82-1.42,1.24-3.06,1.24-4.94v-.04c0-1.87-.41-3.51-1.24-4.93-.83-1.41-1.96-2.5-3.42-3.28Zm1.74,8.27c0,2.14-.66,3.81-1.98,5.03s-3.15,1.82-5.48,1.82h-6.77V2.56h6.77c2.33,0,4.16.6,5.48,1.81,1.32,1.21,1.98,2.88,1.98,5.02v.04Z"/>
        <path class="cls-1" d="m226.02,8.3c-.17-.06-.4-.11-.71-.17-.31-.06-.64-.08-1.01-.08-1.33,0-2.46.38-3.38,1.15-.93.77-1.59,1.82-1.98,3.17h-.06v-3.92h-2.77v21.8h2.77v-13.5c0-1.23.21-2.3.62-3.21.41-.91,1-1.61,1.76-2.11.76-.5,1.65-.74,2.67-.74.49,0,.92.03,1.28.09.36.06.64.14.82.22v-2.7Z"/>
        <path class="cls-1" d="m240.54,9.4c-1.42-.9-3.1-1.35-5.04-1.35s-3.64.47-5.09,1.4c-1.45.94-2.58,2.26-3.38,3.96-.8,1.71-1.21,3.7-1.21,5.97v.02c0,2.29.4,4.28,1.21,5.96.8,1.68,1.95,2.98,3.43,3.9,1.48.92,3.24,1.37,5.28,1.37,1.17,0,2.26-.16,3.27-.47,1.01-.31,1.9-.76,2.68-1.34.78-.58,1.43-1.26,1.94-2.05.51-.79.86-1.65,1.06-2.57l.04-.21h-2.72l-.06.19c-.24.8-.64,1.5-1.19,2.1-.56.6-1.26,1.07-2.1,1.39s-1.79.49-2.85.49c-1.45,0-2.72-.33-3.79-.99-1.08-.66-1.91-1.61-2.5-2.85-.57-1.19-.86-2.64-.88-4.32h16.38v-1.09c0-2.18-.39-4.09-1.16-5.72-.78-1.63-1.87-2.9-3.29-3.8Zm-11.05,4.9c.59-1.24,1.41-2.18,2.44-2.82,1.04-.64,2.22-.96,3.54-.96s2.5.31,3.51.94c1.01.63,1.81,1.55,2.39,2.78.47,1,.74,2.2.83,3.57h-13.56c.09-1.33.37-2.51.85-3.51Z"/>
        <path class="cls-1" d="m261.48,9.4c-1.42-.9-3.1-1.35-5.04-1.35s-3.64.47-5.09,1.4c-1.45.94-2.58,2.26-3.39,3.96-.8,1.71-1.2,3.7-1.2,5.97v.02c0,2.29.4,4.28,1.2,5.96.8,1.68,1.95,2.98,3.43,3.9,1.48.92,3.24,1.37,5.28,1.37,1.17,0,2.26-.16,3.27-.47,1.01-.31,1.9-.76,2.68-1.34.78-.58,1.43-1.26,1.94-2.05.51-.79.86-1.65,1.06-2.57l.04-.21h-2.72l-.06.19c-.24.8-.64,1.5-1.19,2.1-.56.6-1.26,1.07-2.1,1.39s-1.79.49-2.85.49c-1.45,0-2.72-.33-3.79-.99-1.08-.66-1.91-1.61-2.51-2.85-.57-1.19-.86-2.64-.88-4.32h16.38v-1.09c0-2.18-.39-4.09-1.16-5.72-.78-1.63-1.87-2.9-3.29-3.8Zm-11.05,4.9c.6-1.24,1.41-2.18,2.44-2.82,1.03-.64,2.21-.96,3.54-.96s2.5.31,3.51.94c1.01.63,1.81,1.55,2.39,2.78.47,1,.74,2.2.83,3.57h-13.56c.09-1.33.37-2.51.85-3.51Z"/>
        <path class="cls-1" d="m272.79,2.56h-2.85v5.89h-3.21v2.33h3.21v14.36c0,1.9.44,3.29,1.33,4.18.89.89,2.23,1.33,4.01,1.33.34,0,.67-.02,1-.05.33-.03.6-.07.81-.12v-2.24c-.15.01-.34.03-.55.05-.22.02-.44.03-.68.03-1.02,0-1.78-.24-2.29-.71-.51-.47-.77-1.31-.77-2.52v-14.32h4.3v-2.33h-4.3V2.56Z"/>
        <path class="cls-1" d="m281.7,4.51c.52,0,.95-.18,1.31-.53s.54-.79.54-1.31-.18-.93-.54-1.29c-.36-.36-.79-.53-1.31-.53s-.93.18-1.29.53-.53.79-.53,1.29.18.95.53,1.31c.36.36.79.53,1.29.53Z"/>
        <rect class="cls-1" x="280.31" y="8.45" width="2.77" height="21.8"/>
      </g>
    </g>
  </g>
</svg>